<svg width="80" height="80" viewBox="0 0 80 80" fill="none" xmlns="http://www.w3.org/2000/svg">
  <defs>
    <linearGradient id="toolsGradient" x1="0%" y1="0%" x2="100%" y2="100%">
      <stop offset="0%" style="stop-color:#f59e0b;stop-opacity:1" />
      <stop offset="100%" style="stop-color:#d97706;stop-opacity:1" />
    </linearGradient>
  </defs>
  
  <!-- Wrench -->
  <rect x="20" y="30" width="4" height="25" rx="2" fill="url(#toolsGradient)" transform="rotate(45 22 42.5)"/>
  <circle cx="22" cy="30" r="4" fill="url(#toolsGradient)" transform="rotate(45 22 42.5)"/>
  <circle cx="22" cy="30" r="2" fill="none" stroke="#ffffff" stroke-width="1" transform="rotate(45 22 42.5)"/>
  
  <!-- Hammer -->
  <rect x="50" y="35" width="4" height="20" rx="2" fill="url(#toolsGradient)" transform="rotate(-30 52 45)"/>
  <rect x="45" y="32" width="14" height="6" rx="2" fill="url(#toolsGradient)" transform="rotate(-30 52 45)"/>
  
  <!-- Screwdriver -->
  <rect x="35" y="15" width="2" height="20" fill="#6b7280"/>
  <circle cx="36" cy="12" r="3" fill="#14F195"/>
  <rect x="34" y="35" width="4" height="8" rx="2" fill="url(#toolsGradient)"/>
  
  <!-- Gear -->
  <circle cx="55" cy="20" r="8" fill="url(#toolsGradient)"/>
  <circle cx="55" cy="20" r="4" fill="none" stroke="#ffffff" stroke-width="2"/>
  <!-- Gear teeth -->
  <rect x="53" y="10" width="4" height="3" fill="url(#toolsGradient)"/>
  <rect x="53" y="27" width="4" height="3" fill="url(#toolsGradient)"/>
  <rect x="45" y="18" width="3" height="4" fill="url(#toolsGradient)"/>
  <rect x="62" y="18" width="3" height="4" fill="url(#toolsGradient)"/>
  
  <!-- Code brackets -->
  <text x="15" y="65" fill="#9945FF" font-family="monospace" font-size="12" font-weight="bold">&lt;/&gt;</text>
  
  <!-- SDK symbol -->
  <rect x="45" y="55" width="20" height="3" rx="1.5" fill="#14F195"/>
  <rect x="45" y="60" width="15" height="3" rx="1.5" fill="#14F195"/>
  <rect x="45" y="65" width="18" height="3" rx="1.5" fill="#14F195"/>
  
  <!-- Connecting lines -->
  <line x1="30" y1="45" x2="40" y2="50" stroke="#e5e7eb" stroke-width="1" opacity="0.7"/>
  <line x1="50" y1="35" x2="45" y2="40" stroke="#e5e7eb" stroke-width="1" opacity="0.7"/>
</svg>
