<svg width="80" height="80" viewBox="0 0 80 80" fill="none" xmlns="http://www.w3.org/2000/svg">
  <defs>
    <linearGradient id="capGradient" x1="0%" y1="0%" x2="100%" y2="100%">
      <stop offset="0%" style="stop-color:#8b5cf6;stop-opacity:1" />
      <stop offset="100%" style="stop-color:#7c3aed;stop-opacity:1" />
    </linearGradient>
  </defs>
  
  <!-- Brain outline -->
  <path d="M 25 20 Q 15 15 15 30 Q 15 45 25 50 Q 35 55 40 50 Q 45 55 55 50 Q 65 45 65 30 Q 65 15 55 20 Q 45 15 40 20 Q 35 15 25 20 Z" 
        fill="url(#capGradient)" stroke="#ffffff" stroke-width="2"/>
  
  <!-- Brain segments -->
  <path d="M 25 25 Q 35 20 40 25 Q 45 20 55 25 Q 50 35 40 35 Q 30 35 25 25" 
        fill="#a855f7" opacity="0.8"/>
  <path d="M 25 35 Q 35 40 40 35 Q 45 40 55 35 Q 50 45 40 45 Q 30 45 25 35" 
        fill="#a855f7" opacity="0.6"/>
  
  <!-- Neural connections -->
  <circle cx="30" cy="28" r="2" fill="#14F195"/>
  <circle cx="40" cy="25" r="2" fill="#14F195"/>
  <circle cx="50" cy="28" r="2" fill="#14F195"/>
  <circle cx="35" cy="35" r="2" fill="#fbbf24"/>
  <circle cx="45" cy="35" r="2" fill="#fbbf24"/>
  <circle cx="30" cy="42" r="2" fill="#14F195"/>
  <circle cx="50" cy="42" r="2" fill="#14F195"/>
  
  <!-- Neural pathways -->
  <line x1="30" y1="28" x2="40" y2="25" stroke="#14F195" stroke-width="1" opacity="0.6"/>
  <line x1="40" y1="25" x2="50" y2="28" stroke="#14F195" stroke-width="1" opacity="0.6"/>
  <line x1="35" y1="35" x2="45" y2="35" stroke="#fbbf24" stroke-width="1" opacity="0.6"/>
  <line x1="30" y1="42" x2="50" y2="42" stroke="#14F195" stroke-width="1" opacity="0.6"/>
  
  <!-- Capability indicators -->
  <rect x="15" y="60" width="8" height="2" rx="1" fill="#14F195"/>
  <text x="25" y="63" fill="#7c3aed" font-family="Arial" font-size="8">Trading</text>
  
  <rect x="15" y="65" width="6" height="2" rx="1" fill="#fbbf24"/>
  <text x="23" y="68" fill="#7c3aed" font-family="Arial" font-size="8">Analysis</text>
  
  <rect x="15" y="70" width="10" height="2" rx="1" fill="#ef4444"/>
  <text x="27" y="73" fill="#7c3aed" font-family="Arial" font-size="8">Learning</text>
  
  <!-- Thinking waves -->
  <circle cx="40" cy="35" r="8" stroke="#a855f7" stroke-width="1" fill="none" opacity="0.3">
    <animate attributeName="r" values="8;12;8" dur="2s" repeatCount="indefinite"/>
    <animate attributeName="opacity" values="0.3;0.1;0.3" dur="2s" repeatCount="indefinite"/>
  </circle>
</svg>
