<svg width="80" height="80" viewBox="0 0 80 80" fill="none" xmlns="http://www.w3.org/2000/svg">
  <defs>
    <linearGradient id="networkGradient" x1="0%" y1="0%" x2="100%" y2="100%">
      <stop offset="0%" style="stop-color:#06b6d4;stop-opacity:1" />
      <stop offset="100%" style="stop-color:#0891b2;stop-opacity:1" />
    </linearGradient>
  </defs>
  
  <!-- Central hub -->
  <circle cx="40" cy="40" r="8" fill="url(#networkGradient)" stroke="#ffffff" stroke-width="2"/>
  
  <!-- Surrounding nodes -->
  <circle cx="20" cy="20" r="5" fill="#14F195" opacity="0.8"/>
  <circle cx="60" cy="20" r="5" fill="#14F195" opacity="0.8"/>
  <circle cx="20" cy="60" r="5" fill="#14F195" opacity="0.8"/>
  <circle cx="60" cy="60" r="5" fill="#14F195" opacity="0.8"/>
  <circle cx="10" cy="40" r="4" fill="#9945FF" opacity="0.7"/>
  <circle cx="70" cy="40" r="4" fill="#9945FF" opacity="0.7"/>
  <circle cx="40" cy="10" r="4" fill="#9945FF" opacity="0.7"/>
  <circle cx="40" cy="70" r="4" fill="#9945FF" opacity="0.7"/>
  
  <!-- Connection lines -->
  <line x1="32" y1="32" x2="25" y2="25" stroke="#14F195" stroke-width="2" opacity="0.6"/>
  <line x1="48" y1="32" x2="55" y2="25" stroke="#14F195" stroke-width="2" opacity="0.6"/>
  <line x1="32" y1="48" x2="25" y2="55" stroke="#14F195" stroke-width="2" opacity="0.6"/>
  <line x1="48" y1="48" x2="55" y2="55" stroke="#14F195" stroke-width="2" opacity="0.6"/>
  
  <line x1="32" y1="40" x2="14" y2="40" stroke="#9945FF" stroke-width="2" opacity="0.6"/>
  <line x1="48" y1="40" x2="66" y2="40" stroke="#9945FF" stroke-width="2" opacity="0.6"/>
  <line x1="40" y1="32" x2="40" y2="14" stroke="#9945FF" stroke-width="2" opacity="0.6"/>
  <line x1="40" y1="48" x2="40" y2="66" stroke="#9945FF" stroke-width="2" opacity="0.6"/>
  
  <!-- Data packets -->
  <circle cx="30" cy="25" r="1.5" fill="#fbbf24">
    <animateMotion dur="2s" repeatCount="indefinite">
      <path d="M 0,0 L 10,7 L 10,15"/>
    </animateMotion>
  </circle>
  
  <circle cx="50" cy="55" r="1.5" fill="#fbbf24">
    <animateMotion dur="2.5s" repeatCount="indefinite">
      <path d="M 0,0 L -10,-7 L -10,-15"/>
    </animateMotion>
  </circle>
  
  <!-- Network signal waves -->
  <circle cx="40" cy="40" r="12" stroke="#06b6d4" stroke-width="1" fill="none" opacity="0.4">
    <animate attributeName="r" values="12;20;12" dur="3s" repeatCount="indefinite"/>
    <animate attributeName="opacity" values="0.4;0.1;0.4" dur="3s" repeatCount="indefinite"/>
  </circle>
</svg>
