<svg width="80" height="80" viewBox="0 0 80 80" fill="none" xmlns="http://www.w3.org/2000/svg">
  <defs>
    <linearGradient id="roadmapGradient" x1="0%" y1="0%" x2="100%" y2="100%">
      <stop offset="0%" style="stop-color:#3b82f6;stop-opacity:1" />
      <stop offset="100%" style="stop-color:#1d4ed8;stop-opacity:1" />
    </linearGradient>
  </defs>
  
  <!-- Road path -->
  <path d="M 10 70 Q 40 50 70 70" stroke="#6b7280" stroke-width="6" fill="none"/>
  <path d="M 10 70 Q 40 50 70 70" stroke="#fbbf24" stroke-width="2" fill="none" stroke-dasharray="5,5">
    <animate attributeName="stroke-dashoffset" values="0;10;0" dur="2s" repeatCount="indefinite"/>
  </path>
  
  <!-- Milestones -->
  <circle cx="15" cy="68" r="4" fill="url(#roadmapGradient)"/>
  <circle cx="40" cy="52" r="4" fill="url(#roadmapGradient)"/>
  <circle cx="65" cy="68" r="4" fill="url(#roadmapGradient)"/>
  
  <!-- Milestone markers -->
  <text x="15" y="72" text-anchor="middle" fill="#ffffff" font-family="Arial" font-size="8" font-weight="bold">1</text>
  <text x="40" y="56" text-anchor="middle" fill="#ffffff" font-family="Arial" font-size="8" font-weight="bold">2</text>
  <text x="65" y="72" text-anchor="middle" fill="#ffffff" font-family="Arial" font-size="8" font-weight="bold">3</text>
  
  <!-- Progress indicators -->
  <rect x="10" y="35" width="8" height="2" rx="1" fill="#14F195"/>
  <text x="20" y="38" fill="#1d4ed8" font-family="Arial" font-size="8">Complete</text>
  
  <rect x="35" y="25" width="8" height="2" rx="1" fill="#fbbf24"/>
  <text x="45" y="28" fill="#1d4ed8" font-family="Arial" font-size="8">In Progress</text>
  
  <rect x="60" y="35" width="8" height="2" rx="1" fill="#9ca3af"/>
  <text x="70" y="38" fill="#1d4ed8" font-family="Arial" font-size="8">Planned</text>
  
  <!-- Future arrow -->
  <path d="M 70 65 L 75 60 L 70 55" stroke="#3b82f6" stroke-width="2" fill="none" stroke-linecap="round"/>
  
  <!-- Timeline -->
  <line x1="5" y1="15" x2="75" y2="15" stroke="#e5e7eb" stroke-width="2"/>
  <text x="10" y="12" fill="#6b7280" font-family="Arial" font-size="8">2025</text>
  <text x="35" y="12" fill="#6b7280" font-family="Arial" font-size="8">Q2</text>
  <text x="60" y="12" fill="#6b7280" font-family="Arial" font-size="8">Q3</text>
  
  <!-- Stars indicating achievements -->
  <polygon points="25,45 27,50 32,50 28,53 30,58 25,55 20,58 22,53 18,50 23,50" fill="#fbbf24"/>
  <polygon points="55,40 57,45 62,45 58,48 60,53 55,50 50,53 52,48 48,45 53,45" fill="#fbbf24" opacity="0.7"/>
</svg>
