<svg width="80" height="80" viewBox="0 0 80 80" fill="none" xmlns="http://www.w3.org/2000/svg">
  <defs>
    <linearGradient id="securityGradient" x1="0%" y1="0%" x2="100%" y2="100%">
      <stop offset="0%" style="stop-color:#ef4444;stop-opacity:1" />
      <stop offset="100%" style="stop-color:#dc2626;stop-opacity:1" />
    </linearGradient>
  </defs>
  
  <!-- Shield outline -->
  <path d="M 40 10 L 20 20 L 20 45 Q 20 55 40 65 Q 60 55 60 45 L 60 20 Z" 
        fill="url(#securityGradient)" stroke="#ffffff" stroke-width="2"/>
  
  <!-- Shield inner -->
  <path d="M 40 15 L 25 23 L 25 43 Q 25 50 40 58 Q 55 50 55 43 L 55 23 Z" 
        fill="#fee2e2" opacity="0.8"/>
  
  <!-- Lock symbol -->
  <rect x="35" y="35" width="10" height="8" rx="2" fill="#dc2626"/>
  <path d="M 37 35 L 37 30 Q 37 27 40 27 Q 43 27 43 30 L 43 35" 
        stroke="#dc2626" stroke-width="2" fill="none"/>
  
  <!-- Security lines -->
  <line x1="30" y1="28" x2="50" y2="28" stroke="#ffffff" stroke-width="1" opacity="0.7"/>
  <line x1="28" y1="48" x2="52" y2="48" stroke="#ffffff" stroke-width="1" opacity="0.7"/>
  
  <!-- Checkmark -->
  <path d="M 33 40 L 37 44 L 47 32" stroke="#ffffff" stroke-width="2" fill="none" stroke-linecap="round"/>
  
  <!-- Security dots -->
  <circle cx="30" cy="35" r="1" fill="#14F195" opacity="0.8"/>
  <circle cx="50" cy="35" r="1" fill="#14F195" opacity="0.8"/>
  <circle cx="30" cy="42" r="1" fill="#14F195" opacity="0.8"/>
  <circle cx="50" cy="42" r="1" fill="#14F195" opacity="0.8"/>
  
  <!-- Scan lines -->
  <line x1="15" y1="25" x2="65" y2="25" stroke="#14F195" stroke-width="1" opacity="0.3">
    <animate attributeName="y1" values="25;50;25" dur="2s" repeatCount="indefinite"/>
    <animate attributeName="y2" values="25;50;25" dur="2s" repeatCount="indefinite"/>
  </line>
</svg>
